<svg width="242" height="201" viewBox="0 0 242 201" fill="none" xmlns="http://www.w3.org/2000/svg">
<path d="M136.225 32.775L173.725 54.525L136.225 76.125V32.775Z" fill="black"/>
<path d="M229.775 76.125L192.275 54.525L229.775 32.775V76.125Z" fill="black"/>
<path d="M68.275 75L90.55 36.375L112.9 75H68.275Z" fill="black"/>
<path d="M47.625 37.65L25.875 75.15L4.275 37.65H47.625Z" fill="black"/>
<path d="M140.875 92.65H154L172.6 111.325L154 130H140.875L155.65 115.9H121.225V106.6H155.5L140.875 92.65Z" fill="black"/>
<path d="M204.425 106.6H238.7V115.9H204.275L219.05 130H205.85L187.325 111.325L205.85 92.65H219.05L204.425 106.6Z" fill="black"/>
<path d="M86.9 78.625L105.575 97.225V110.35L91.475 95.575V130H82.25V95.65L68.15 110.35V97.225L86.9 78.625Z" fill="black"/>
<path d="M30.55 79.9V114.175L44.575 99.55V112.675L25.825 131.275L7.15 112.675V99.55L21.325 114.4V79.9H30.55Z" fill="black"/>
<path d="M154 148.65L172.6 167.325L154 186V171.9H121.225V162.6H154V148.65Z" fill="black"/>
<path d="M205.85 162.6H238.7V171.9H205.85V186L187.325 167.325L205.85 148.65V162.6Z" fill="black"/>
<path d="M82.9 134.625L101.575 153.225H87.475V186H78.25V153.225H64.15L82.9 134.625Z" fill="black"/>
<path d="M30.55 135.9V168.675H44.575L25.825 187.275L7.15 168.675H21.325V135.9H30.55Z" fill="black"/>
</svg>
