<svg width="196" height="120" viewBox="0 0 196 120" fill="none" xmlns="http://www.w3.org/2000/svg">
<path d="M20 72.4H10.5V42.3H1.1V33H20V72.4ZM9 100L56 33H66.3L19.3 100H9ZM69.9 82H76.5V90.8H69.9V100H60.3V90.8H40.5V83.8L56.3 60.6H69.9V82ZM60.3 69.3L52.1 82H60.3V69.3Z" fill="black"/>
<path d="M124.5 27.7C129.367 27.7 133.1 28.7 135.7 30.7C138.3 32.6333 139.6 35.2 139.6 38.4C139.6 43.6 137.033 47.1 131.9 48.9V49.3C137.967 50.7 141 54.1 141 59.5C141 63.4333 139.433 66.5333 136.3 68.8C133.233 71.0667 128.833 72.2 123.1 72.2C120.367 72.2 117.767 71.9667 115.3 71.5C112.9 70.9667 110.7 70.1333 108.7 69V59.6C110.9 60.9333 113.2 61.9 115.6 62.5C118 63.1 120.367 63.4 122.7 63.4C127.633 63.4 130.1 61.7333 130.1 58.4C130.1 56.9333 129.5 55.7667 128.3 54.9C127.1 54.0333 124.933 53.6 121.8 53.6H116.5V45.6H121.1C124.033 45.6 126.067 45.1333 127.2 44.2C128.4 43.2667 129 42.0667 129 40.6C129 39.2667 128.533 38.2 127.6 37.4C126.667 36.6 125.3 36.2 123.5 36.2C121.767 36.2 120.1 36.5 118.5 37.1C116.9 37.7 115.233 38.6333 113.5 39.9L108.6 33C110.667 31.4667 113 30.2 115.6 29.2C118.2 28.2 121.167 27.7 124.5 27.7ZM175.1 28.6L135.5 100H123.8L163.4 28.6H175.1ZM189.4 57V65.5H172L171.3 72.7C171.967 72.6333 172.767 72.5333 173.7 72.4C174.633 72.2667 175.667 72.2 176.8 72.2C181.133 72.2 184.8 73.3667 187.8 75.7C190.8 78.0333 192.3 81.4 192.3 85.8C192.3 90.5333 190.733 94.2333 187.6 96.9C184.467 99.5 179.967 100.8 174.1 100.8C171.767 100.8 169.467 100.6 167.2 100.2C164.933 99.8 163 99.1667 161.4 98.3V88.8C163.067 89.8667 165 90.7333 167.2 91.4C169.4 92.0667 171.367 92.4 173.1 92.4C175.633 92.4 177.633 91.9333 179.1 91C180.633 90 181.4 88.3333 181.4 86C181.4 81.8667 178.7 79.8 173.3 79.8C172.5 79.8 171.533 79.9 170.4 80.1C169.267 80.2333 168.333 80.4333 167.6 80.7L162.2 78.7L164 57H189.4Z" fill="black"/>
</svg>
