<svg width="190" height="158" viewBox="0 0 190 158" fill="none" xmlns="http://www.w3.org/2000/svg">
<path d="M1.935 23.04C1.935 18.9 4.905 14.85 10.575 14.85H50.355V20.115H39.87V45H34.47V20.115H10.89C8.865 20.115 7.74 21.465 7.74 22.905C7.74 24.12 8.505 25.38 10.125 25.785L21.06 28.395C25.65 29.52 27.72 33.075 27.72 36.495C27.72 40.77 24.66 45 18.855 45H3.015V39.735H18.63C20.745 39.735 21.96 38.16 21.96 36.63C21.96 35.37 21.105 33.975 19.395 33.57L8.415 30.96C3.915 29.88 1.935 26.37 1.935 23.04Z" fill="black"/>
<path d="M124.53 14.85V20.115H114.495V45H109.095V20.115H94.785V45H89.43V20.115H79.395V14.85H124.53Z" fill="black"/>
<path d="M189 17.595H181.35C180.045 17.595 179.325 18.315 179.325 19.575V22.635H189V27.675H179.325V45H174.15V27.675H162.675V45H157.5V27.675H153.9V22.635H157.5V18.72C157.5 15.075 160.02 12.6 163.665 12.6H171.585V17.595H164.7C163.395 17.595 162.675 18.315 162.675 19.575V22.635H174.15V18.72C174.15 15.075 176.67 12.6 180.315 12.6H189V17.595Z" fill="black"/>
<path d="M43.045 71.635V76.675H33.37V87.025C33.37 88.24 34.09 88.96 35.395 88.96H43.045V94H34.36C30.49 94 28.195 91.75 28.195 87.925V76.675H16.675V94H11.5V76.675H7.9V71.635H11.5V67.72C11.5 64.075 14.02 61.6 17.665 61.6H24.685V66.595H18.7C17.395 66.595 16.675 67.315 16.675 68.575V71.635H28.195V63.85H33.37V71.635H43.045Z" fill="black"/>
<path d="M118.38 71.635V76.675H108.705V87.025C108.705 88.24 109.47 88.96 110.73 88.96H118.38V94H109.74C105.87 94 103.53 91.75 103.53 87.925V76.675H97.905C94.395 76.675 91.965 79.015 91.965 82.885V94H86.79V71.635H91.785V75.325H91.965C92.955 72.985 95.115 71.635 97.995 71.635H103.53V63.85H108.705V71.635H118.38Z" fill="black"/>
<path d="M188.045 71.635V76.675H178.37V87.025C178.37 88.24 179.09 88.96 180.395 88.96H188.045V94H179.36C175.49 94 173.195 91.75 173.195 87.925V76.675H161.675V87.025C161.675 88.24 162.395 88.96 163.7 88.96H170.585V94H162.665C158.795 94 156.5 91.75 156.5 87.925V76.675H152.9V71.635H156.5V63.85H161.675V71.635H173.195V63.85H178.37V71.635H188.045Z" fill="black"/>
<path d="M17.79 110.6H22.965V117.44H17.79V110.6ZM28.59 110.6H33.765V117.44H28.59V110.6ZM17.79 120.635H22.965V145.97C22.965 149.84 20.625 152 16.755 152H11.355V146.915H15.765C17.025 146.915 17.79 146.24 17.79 144.98V120.635ZM28.59 120.635H33.765V152H28.59V120.635Z" fill="black"/>
<path d="M89.46 111.11H94.275V116.6H89.46V111.11ZM98.145 111.11H102.96V116.6H98.145V111.11ZM93.51 149V118.85H98.91V149H93.51ZM98.4407 111.11H103.256V116.6H98.4407V111.11ZM107.126 111.11H111.941V116.6H107.126V111.11ZM102.491 149V118.85H107.891V149H102.491Z" fill="black"/>
<path d="M159.65 116.6H164.465V123.44H159.65V116.6ZM168.335 116.6H173.15V123.44H168.335V116.6ZM163.79 126.635H168.965V149H163.79V126.635ZM168.103 116.6H172.918V123.44H168.103V116.6ZM176.788 116.6H181.603V123.44H176.788V116.6ZM172.243 126.635H177.418V149H172.243V126.635Z" fill="black"/>
</svg>
