<svg width="232" height="158" viewBox="0 0 232 158" fill="none" xmlns="http://www.w3.org/2000/svg">
<path d="M18.54 37.585C9.9 37.585 2.835 30.565 2.835 21.925C2.835 13.285 9.9 6.265 18.54 6.265C27.135 6.265 34.155 13.285 34.155 21.925C34.155 30.565 27.135 37.585 18.54 37.585ZM18.54 35.38C25.92 35.38 31.95 29.305 31.95 21.925C31.95 14.545 25.92 8.47 18.54 8.47C11.115 8.47 5.04 14.545 5.04 21.925C5.04 29.305 11.115 35.38 18.54 35.38ZM11.295 19.72V24.13C11.295 28.18 14.535 31.105 18.54 31.105C22.5 31.105 25.785 28.225 25.785 24.13V19.72C25.785 15.67 22.545 12.745 18.54 12.745C14.535 12.745 11.295 15.67 11.295 19.72ZM13.995 24.13V19.72C13.995 17.2 15.93 15.4 18.495 15.4C21.015 15.4 23.04 17.2 23.04 19.72V24.13C23.04 26.65 21.015 28.45 18.495 28.45C15.93 28.45 13.995 26.65 13.995 24.13ZM55.5859 37.585C46.9459 37.585 39.8809 30.565 39.8809 21.925C39.8809 13.285 46.9459 6.265 55.5859 6.265C64.1809 6.265 71.2009 13.285 71.2009 21.925C71.2009 30.565 64.1809 37.585 55.5859 37.585ZM55.5859 35.38C62.9659 35.38 68.9959 29.305 68.9959 21.925C68.9959 14.545 62.9659 8.47 55.5859 8.47C48.1609 8.47 42.0859 14.545 42.0859 21.925C42.0859 29.305 48.1609 35.38 55.5859 35.38ZM50.8159 13.06V15.76H55.4959V30.79H58.2409V13.06H50.8159ZM92.6318 37.585C83.9918 37.585 76.9268 30.565 76.9268 21.925C76.9268 13.285 83.9918 6.265 92.6318 6.265C101.227 6.265 108.247 13.285 108.247 21.925C108.247 30.565 101.227 37.585 92.6318 37.585ZM92.6318 35.38C100.012 35.38 106.042 29.305 106.042 21.925C106.042 14.545 100.012 8.47 92.6318 8.47C85.2068 8.47 79.1318 14.545 79.1318 21.925C79.1318 29.305 85.2068 35.38 92.6318 35.38ZM86.4218 28.63V30.79H99.2468V28.09H90.5618L97.1768 21.565C98.3918 20.395 99.0668 18.91 99.0668 17.695C99.0668 15.085 96.9068 13.06 93.8468 13.06H86.6468V15.76H93.8018C95.1518 15.76 96.3218 16.57 96.3218 17.74C96.3218 18.46 96.0068 19.18 95.4668 19.72L86.4218 28.63ZM129.678 37.585C121.038 37.585 113.973 30.565 113.973 21.925C113.973 13.285 121.038 6.265 129.678 6.265C138.273 6.265 145.293 13.285 145.293 21.925C145.293 30.565 138.273 37.585 129.678 37.585ZM129.678 35.38C137.058 35.38 143.088 29.305 143.088 21.925C143.088 14.545 137.058 8.47 129.678 8.47C122.253 8.47 116.178 14.545 116.178 21.925C116.178 29.305 122.253 35.38 129.678 35.38ZM123.468 28.09V30.79H131.073C134.178 30.79 136.653 28.45 136.653 25.48C136.653 22.555 134.133 20.485 131.208 20.485H130.668L135.843 15.085V13.06H123.468V15.76H132.063L126.978 21.025V22.825H130.938C132.603 22.825 133.953 24.085 133.953 25.435C133.953 26.83 132.603 28.09 130.938 28.09H123.468ZM166.724 37.585C158.084 37.585 151.019 30.565 151.019 21.925C151.019 13.285 158.084 6.265 166.724 6.265C175.319 6.265 182.339 13.285 182.339 21.925C182.339 30.565 175.319 37.585 166.724 37.585ZM166.724 35.38C174.104 35.38 180.134 29.305 180.134 21.925C180.134 14.545 174.104 8.47 166.724 8.47C159.299 8.47 153.224 14.545 153.224 21.925C153.224 29.305 159.299 35.38 166.724 35.38ZM158.264 24.31V26.29H168.029V30.79H170.774V26.29H173.519V23.77H170.774V13.06H166.949L158.264 24.31ZM168.029 23.77H161.819L168.029 15.625V23.77ZM18.54 75.585C9.9 75.585 2.835 68.565 2.835 59.925C2.835 51.285 9.9 44.265 18.54 44.265C27.135 44.265 34.155 51.285 34.155 59.925C34.155 68.565 27.135 75.585 18.54 75.585ZM18.54 73.38C25.92 73.38 31.95 67.305 31.95 59.925C31.95 52.545 25.92 46.47 18.54 46.47C11.115 46.47 5.04 52.545 5.04 59.925C5.04 67.305 11.115 73.38 18.54 73.38ZM13.635 51.06L12.555 60.78H19.8C21.6 60.78 22.815 62.085 22.815 63.435C22.815 64.83 21.555 66.09 19.8 66.09H12.735V68.79H19.845C23.265 68.79 25.605 66.315 25.605 63.39C25.605 60.645 23.265 58.215 19.845 58.215H15.3L15.795 53.76H24.255V51.06H13.635ZM55.5859 75.585C46.9459 75.585 39.8809 68.565 39.8809 59.925C39.8809 51.285 46.9459 44.265 55.5859 44.265C64.1809 44.265 71.2009 51.285 71.2009 59.925C71.2009 68.565 64.1809 75.585 55.5859 75.585ZM55.5859 73.38C62.9659 73.38 68.9959 67.305 68.9959 59.925C68.9959 52.545 62.9659 46.47 55.5859 46.47C48.1609 46.47 42.0859 52.545 42.0859 59.925C42.0859 67.305 48.1609 73.38 55.5859 73.38ZM60.5359 53.76V51.06H54.4159C52.2109 51.06 50.6809 52.32 50.2759 54.21C49.6459 57 48.8809 59.97 48.5209 62.265C48.3859 63.165 48.3409 64.29 48.7009 65.235C49.6009 67.575 52.1659 69.105 55.4509 69.105C59.5009 69.105 62.6959 66.81 62.6959 63.255C62.6959 59.835 59.9959 57.63 56.3059 57.63C54.5059 57.63 52.9759 58.08 51.8059 58.98H51.7159L52.6609 54.975C52.7959 54.165 53.4259 53.76 54.2809 53.76H60.5359ZM50.9959 63.255C50.9959 61.32 52.8859 60.015 55.4959 60.015C58.1959 60.015 59.9959 61.365 59.9959 63.255C59.9959 65.19 58.1059 66.54 55.4059 66.54C52.7959 66.54 50.9959 65.28 50.9959 63.255ZM92.6318 75.585C83.9918 75.585 76.9268 68.565 76.9268 59.925C76.9268 51.285 83.9918 44.265 92.6318 44.265C101.227 44.265 108.247 51.285 108.247 59.925C108.247 68.565 101.227 75.585 92.6318 75.585ZM92.6318 73.38C100.012 73.38 106.042 67.305 106.042 59.925C106.042 52.545 100.012 46.47 92.6318 46.47C85.2068 46.47 79.1318 52.545 79.1318 59.925C79.1318 67.305 85.2068 73.38 92.6318 73.38ZM86.3318 51.06V53.76H96.0068L88.5368 68.79H91.4618L99.1118 53.085V51.06H86.3318ZM129.678 75.585C121.038 75.585 113.973 68.565 113.973 59.925C113.973 51.285 121.038 44.265 129.678 44.265C138.273 44.265 145.293 51.285 145.293 59.925C145.293 68.565 138.273 75.585 129.678 75.585ZM129.678 73.38C137.058 73.38 143.088 67.305 143.088 59.925C143.088 52.545 137.058 46.47 129.678 46.47C122.253 46.47 116.178 52.545 116.178 59.925C116.178 67.305 122.253 73.38 129.678 73.38ZM122.388 63.795C122.388 61.815 123.648 60.33 125.763 59.52C123.918 58.755 122.838 57.405 122.838 55.605C122.838 52.59 125.853 50.7 129.633 50.7C133.368 50.7 136.473 52.545 136.473 55.605C136.473 57.36 135.348 58.755 133.548 59.52C135.618 60.33 136.923 61.815 136.923 63.795C136.923 67.17 133.638 69.105 129.633 69.105C125.673 69.105 122.388 67.035 122.388 63.795ZM125.538 55.785C125.538 57.405 127.338 58.305 129.633 58.305C131.883 58.305 133.773 57.405 133.773 55.785C133.773 54.21 131.973 53.22 129.633 53.22C127.428 53.22 125.538 54.165 125.538 55.785ZM125.088 63.66C125.088 65.37 127.113 66.585 129.633 66.585C132.198 66.585 134.223 65.415 134.223 63.66C134.223 61.905 132.153 60.78 129.633 60.78C127.113 60.78 125.088 61.905 125.088 63.66ZM166.724 75.585C158.084 75.585 151.019 68.565 151.019 59.925C151.019 51.285 158.084 44.265 166.724 44.265C175.319 44.265 182.339 51.285 182.339 59.925C182.339 68.565 175.319 75.585 166.724 75.585ZM166.724 73.38C174.104 73.38 180.134 67.305 180.134 59.925C180.134 52.545 174.104 46.47 166.724 46.47C159.299 46.47 153.224 52.545 153.224 59.925C153.224 67.305 159.299 73.38 166.724 73.38ZM161.819 66V68.7H167.939C170.144 68.7 171.674 67.44 172.079 65.55C172.709 62.76 173.474 59.79 173.834 57.495C173.969 56.595 174.014 55.47 173.654 54.525C172.754 52.185 170.189 50.655 166.904 50.655C162.854 50.655 159.659 52.95 159.659 56.505C159.659 59.925 162.359 62.13 166.049 62.13C167.849 62.13 169.379 61.68 170.549 60.78H170.639L169.694 64.785C169.559 65.595 168.929 66 168.074 66H161.819ZM171.359 56.505C171.359 58.44 169.469 59.745 166.859 59.745C164.159 59.745 162.359 58.395 162.359 56.505C162.359 54.57 164.249 53.22 166.949 53.22C169.559 53.22 171.359 54.48 171.359 56.505Z" fill="black"/>
<path d="M18.54 119.585C9.9 119.585 2.835 112.565 2.835 103.925C2.835 95.285 9.9 88.265 18.54 88.265C27.135 88.265 34.155 95.285 34.155 103.925C34.155 112.565 27.135 119.585 18.54 119.585ZM11.295 101.72V106.13C11.295 110.18 14.535 113.105 18.54 113.105C22.5 113.105 25.785 110.225 25.785 106.13V101.72C25.785 97.67 22.545 94.745 18.54 94.745C14.535 94.745 11.295 97.67 11.295 101.72ZM13.995 106.13V101.72C13.995 99.2 15.93 97.4 18.495 97.4C21.015 97.4 23.04 99.2 23.04 101.72V106.13C23.04 108.65 21.015 110.45 18.495 110.45C15.93 110.45 13.995 108.65 13.995 106.13ZM55.5859 119.585C46.9459 119.585 39.8809 112.565 39.8809 103.925C39.8809 95.285 46.9459 88.265 55.5859 88.265C64.1809 88.265 71.2009 95.285 71.2009 103.925C71.2009 112.565 64.1809 119.585 55.5859 119.585ZM50.9059 95.06V97.76H55.5859V112.79H58.2859V95.06H50.9059ZM92.6318 119.585C83.9918 119.585 76.9268 112.565 76.9268 103.925C76.9268 95.285 83.9918 88.265 92.6318 88.265C101.227 88.265 108.247 95.285 108.247 103.925C108.247 112.565 101.227 119.585 92.6318 119.585ZM86.4218 110.63V112.79H99.2468V110.09H90.5618L97.1768 103.565C98.3918 102.395 99.0668 100.91 99.0668 99.695C99.0668 97.085 96.9068 95.06 93.8468 95.06H86.6468V97.76H93.8018C95.1518 97.76 96.3218 98.57 96.3218 99.74C96.3218 100.46 96.0068 101.18 95.4668 101.72L86.4218 110.63ZM129.678 119.585C121.038 119.585 113.973 112.565 113.973 103.925C113.973 95.285 121.038 88.265 129.678 88.265C138.273 88.265 145.293 95.285 145.293 103.925C145.293 112.565 138.273 119.585 129.678 119.585ZM123.468 110.09V112.79H131.073C134.178 112.79 136.653 110.45 136.653 107.48C136.653 104.555 134.133 102.485 131.208 102.485H130.668L135.843 97.085V95.06H123.468V97.76H132.108L126.978 103.025V104.825H130.938C132.603 104.825 133.953 106.085 133.953 107.435C133.953 108.83 132.603 110.09 130.938 110.09H123.468ZM166.724 119.585C158.084 119.585 151.019 112.565 151.019 103.925C151.019 95.285 158.084 88.265 166.724 88.265C175.319 88.265 182.339 95.285 182.339 103.925C182.339 112.565 175.319 119.585 166.724 119.585ZM158.264 106.31V108.29H168.029V112.79H170.774V108.29H173.519V105.77H170.774V95.06H166.949L158.264 106.31ZM168.029 105.77H161.819L168.029 97.625V105.77ZM18.54 157.585C9.9 157.585 2.835 150.565 2.835 141.925C2.835 133.285 9.9 126.265 18.54 126.265C27.135 126.265 34.155 133.285 34.155 141.925C34.155 150.565 27.135 157.585 18.54 157.585ZM13.635 133.06L12.555 142.78H19.8C21.6 142.78 22.815 144.085 22.815 145.435C22.815 146.83 21.555 148.09 19.8 148.09H12.735V150.79H19.845C23.265 150.79 25.605 148.315 25.605 145.39C25.605 142.645 23.265 140.215 19.845 140.215H15.3L15.795 135.76H24.255V133.06H13.635ZM55.5859 157.585C46.9459 157.585 39.8809 150.565 39.8809 141.925C39.8809 133.285 46.9459 126.265 55.5859 126.265C64.1809 126.265 71.2009 133.285 71.2009 141.925C71.2009 150.565 64.1809 157.585 55.5859 157.585ZM60.5359 135.76V133.06H54.4159C52.2109 133.06 50.6809 134.32 50.2759 136.21C49.6459 139 48.8809 141.97 48.5209 144.265C48.3859 145.165 48.3409 146.29 48.7009 147.235C49.6009 149.575 52.1659 151.105 55.4509 151.105C59.5009 151.105 62.6959 148.81 62.6959 145.255C62.6959 141.835 59.9959 139.63 56.3059 139.63C54.5059 139.63 52.9759 140.08 51.8059 140.98H51.7159L52.6609 136.975C52.7959 136.165 53.4259 135.76 54.2809 135.76H60.5359ZM50.9959 145.255C50.9959 143.32 52.8859 142.015 55.4959 142.015C58.1959 142.015 59.9959 143.365 59.9959 145.255C59.9959 147.19 58.1059 148.54 55.4059 148.54C52.7959 148.54 50.9959 147.28 50.9959 145.255ZM92.6318 157.585C83.9918 157.585 76.9268 150.565 76.9268 141.925C76.9268 133.285 83.9918 126.265 92.6318 126.265C101.227 126.265 108.247 133.285 108.247 141.925C108.247 150.565 101.227 157.585 92.6318 157.585ZM86.3318 133.06V135.76H96.0068L88.5368 150.79H91.4618L99.1118 135.085V133.06H86.3318ZM129.678 157.585C121.038 157.585 113.973 150.565 113.973 141.925C113.973 133.285 121.038 126.265 129.678 126.265C138.273 126.265 145.293 133.285 145.293 141.925C145.293 150.565 138.273 157.585 129.678 157.585ZM122.388 145.795C122.388 149.035 125.673 151.105 129.633 151.105C133.638 151.105 136.923 149.17 136.923 145.795C136.923 143.815 135.618 142.33 133.548 141.52C135.348 140.755 136.473 139.36 136.473 137.605C136.473 134.545 133.368 132.7 129.633 132.7C125.853 132.7 122.838 134.59 122.838 137.605C122.838 139.405 123.918 140.755 125.763 141.52C123.648 142.33 122.388 143.815 122.388 145.795ZM125.538 137.785C125.538 136.165 127.428 135.22 129.633 135.22C131.973 135.22 133.773 136.21 133.773 137.785C133.773 139.405 131.883 140.305 129.633 140.305C127.338 140.305 125.538 139.405 125.538 137.785ZM125.088 145.66C125.088 143.905 127.113 142.78 129.633 142.78C132.153 142.78 134.223 143.905 134.223 145.66C134.223 147.415 132.198 148.585 129.633 148.585C127.113 148.585 125.088 147.37 125.088 145.66ZM166.724 157.585C158.084 157.585 151.019 150.565 151.019 141.925C151.019 133.285 158.084 126.265 166.724 126.265C175.319 126.265 182.339 133.285 182.339 141.925C182.339 150.565 175.319 157.585 166.724 157.585ZM161.819 148V150.7H167.939C170.144 150.7 171.674 149.44 172.079 147.55C172.709 144.76 173.474 141.79 173.834 139.495C173.969 138.595 174.014 137.47 173.654 136.525C172.754 134.185 170.189 132.655 166.904 132.655C162.854 132.655 159.659 134.95 159.659 138.505C159.659 141.925 162.359 144.13 166.049 144.13C167.849 144.13 169.379 143.68 170.549 142.78H170.639L169.694 146.785C169.559 147.595 168.929 148 168.074 148H161.819ZM171.359 138.505C171.359 140.44 169.469 141.745 166.859 141.745C164.159 141.745 162.359 140.395 162.359 138.505C162.359 136.57 164.249 135.22 166.949 135.22C169.559 135.22 171.359 136.48 171.359 138.505Z" fill="black"/>
</svg>
